<?xml version="1.0" standalone="no"?><!DOCTYPE svg PUBLIC "-//W3C//DTD SVG 1.1//EN" "http://www.w3.org/Graphics/SVG/1.1/DTD/svg11.dtd"><svg t="1763539590568" class="icon" viewBox="0 0 1024 1024" version="1.1" xmlns="http://www.w3.org/2000/svg" p-id="14338" xmlns:xlink="http://www.w3.org/1999/xlink" width="200" height="200"><path d="M64 64m128 0l640 0q128 0 128 128l0 640q0 128-128 128l-640 0q-128 0-128-128l0-640q0-128 128-128Z" fill="#3DB9D4" p-id="14339"></path><path d="M279.04 424a23.04 23.04 0 0 1 11.456 3.072l182.4 104.512a23.04 23.04 0 0 1 11.52 19.968v220.672a23.04 23.04 0 0 1-35.072 19.648l-182.4-111.872A23.04 23.04 0 0 1 256 660.352V447.04a23.04 23.04 0 0 1 23.04-23.04z m478.72 0a23.04 23.04 0 0 1 23.04 23.04v213.312a23.04 23.04 0 0 1-11.008 19.648l-182.4 111.872a23.04 23.04 0 0 1-35.072-19.648V551.552a23.04 23.04 0 0 1 11.584-19.968l182.4-104.512a23.04 23.04 0 0 1 11.456-3.072zM532.608 195.2l203.84 120.256a23.04 23.04 0 0 1 0 39.68L532.608 475.328a23.04 23.04 0 0 1-23.424 0L305.28 355.2a23.04 23.04 0 0 1 0-39.68L509.184 195.2a23.04 23.04 0 0 1 23.424 0z" fill="#FFFFFF" p-id="14340"></path></svg>