<?xml version="1.0" standalone="no"?><!DOCTYPE svg PUBLIC "-//W3C//DTD SVG 1.1//EN" "http://www.w3.org/Graphics/SVG/1.1/DTD/svg11.dtd"><svg t="1763539781803" class="icon" viewBox="0 0 1024 1024" version="1.1" xmlns="http://www.w3.org/2000/svg" p-id="21635" xmlns:xlink="http://www.w3.org/1999/xlink" width="200" height="200"><path d="M832 1023.68H192.32c-105.6 0-192-86.4-192-192V192c0-105.6 86.4-192 192-192H832c105.6 0 192 86.4 192 192v639.68c0 105.6-86.4 192-192 192z" fill="#FFFFFF" p-id="21636"></path><path d="M641.92 832c8 11.52 12.8 10.56 19.2 8s326.08-110.72 336-114.24c9.92-3.52 6.72-6.72 3.52-11.52-3.2-4.8-109.76-149.76-115.2-158.08-5.44-8.32-8-6.72-16.32-3.84l-339.2 88.32c-0.32-0.32 104 179.84 112 191.36zM1024 684.48v-169.6c-38.08 10.24-86.4 23.04-105.6 28.16 28.8 38.4 73.92 98.56 105.6 141.44z m-105.92-350.4c-5.12 1.28-120.96 22.08-128 23.04-7.04 0.96-4.8 5.12-1.92 8.96l101.76 139.84s124.48-31.04 132.16-32.64c0.64 0 1.28-0.32 1.92-0.32v-18.56c-22.72-28.8-84.48-106.88-89.6-114.24-6.4-8.64-10.88-7.36-16.32-6.08z" fill="#F35045" p-id="21637"></path><path d="M189.76 114.56c24.96-1.28 27.2 4.48 38.4 20.8l276.8 462.72 347.84-83.2-115.2-163.2c-9.6-13.44 0.32-19.52 15.68-22.08 15.36-2.56 148.48-24.96 160-26.56 11.52-1.6 20.48-5.76 39.04 16.64 9.6 11.52 41.6 51.52 71.68 88.96V192c0-52.8-18.88-98.24-56.32-135.68C930.24 18.88 884.8 0 832 0H192C139.2 0 93.76 18.88 56.32 56.32 34.88 77.76 19.52 102.08 10.24 128.64c62.72-5.12 161.92-13.44 179.52-14.08z" fill="#F35045" p-id="21638"></path><path d="M673.28 894.4c-29.44 8.96-42.56 13.44-61.44-13.44-14.4-19.84-91.84-159.36-129.6-228.16-71.68 18.88-203.2 53.12-241.28 62.08-37.12 8.96-52.8-13.44-58.88-26.88-4.48-9.6-112.96-243.52-182.08-393.28V832c0 52.8 18.88 98.24 56.32 135.68C93.76 1005.12 139.2 1024 192 1024h640c52.8 0 98.24-18.88 135.68-56.32C1005.12 930.24 1024 884.8 1024 832v-63.04c-78.4 28.8-331.2 119.36-350.72 125.44z" fill="#F35045" p-id="21639"></path><path d="M241.6 661.12c10.24-2.24 205.12-48.96 209.28-49.92 4.16-0.96 6.72-3.2 2.24-10.88L193.6 152c-2.24-4.16-1.6-5.44-8-5.12-5.76 0.32-150.08 13.12-183.68 16-0.96 7.04-1.6 14.08-1.6 21.12 33.92 69.44 228.8 471.36 229.76 474.56 1.28 3.84 1.28 5.12 11.52 2.56z" fill="#F35045" p-id="21640"></path></svg>