<svg width="72" height="72" viewBox="0 0 72 72" fill="none" xmlns="http://www.w3.org/2000/svg">
  <rect x="6" y="6" width="60" height="60" rx="12" fill="url(#paint0_linear)" />
  <path d="M26.5 30.5C26.5 27.4624 28.9624 25 32 25H40C43.0376 25 45.5 27.4624 45.5 30.5V36.5C45.5 39.5376 43.0376 42 40 42H32C28.9624 42 26.5 39.5376 26.5 36.5V30.5Z" fill="white" />
  <path d="M27 32C27 30.8954 27.8954 30 29 30C30.1046 30 31 30.8954 31 32V34C31 35.1046 30.1046 36 29 36C27.8954 36 27 35.1046 27 34V32Z" fill="#1E293B" />
  <path d="M41 32C41 30.8954 41.8954 30 43 30C44.1046 30 45 30.8954 45 32V34C45 35.1046 44.1046 36 43 36C41.8954 36 41 35.1046 41 34V32Z" fill="#1E293B" />
  <path d="M33.5 38.5C35.5 40.5 36.5 40.5 38.5 38.5" stroke="#1E293B" stroke-width="1.8" stroke-linecap="round" />
  <path d="M25 26L22 22" stroke="white" stroke-width="3" stroke-linecap="round" />
  <path d="M47 26L50 22" stroke="white" stroke-width="3" stroke-linecap="round" />
  <path d="M20 43C24 48 30 51 36 51C42 51 48 48 52 43" stroke="white" stroke-width="3.2" stroke-linecap="round" />
  <defs>
    <linearGradient id="paint0_linear" x1="12" y1="12" x2="60" y2="60" gradientUnits="userSpaceOnUse">
      <stop stop-color="#6366F1" />
      <stop offset="1" stop-color="#A855F7" />
    </linearGradient>
  </defs>
</svg>

